<?xml version="1.0" encoding="utf-8"?>
<!-- Generator: Adobe Illustrator 25.2.0, SVG Export Plug-In . SVG Version: 6.00 Build 0)  -->
<svg version="1.1" id="Layer_1" xmlns="http://www.w3.org/2000/svg" xmlns:xlink="http://www.w3.org/1999/xlink" x="0px" y="0px"
	 viewBox="0 0 32 26" height="30" style="enable-background:new 0 0 32 26;" xml:space="preserve">
<style type="text/css">
	.st0{fill:#FF4C60;}
	.st1{fill:#FFFFFF;}
</style>
<desc>Created with Sketch.</desc>
<g>
	<g id="Symbols_1_">
		<g id="header-1-light" transform="translate(-2.000000, -61.000000)">
			<g id="Bolby.">
				<g transform="translate(2.448000, 61.440000)">
					<path id="_x2E__1_" class="st0" d="M26.9,25.5c0.2,0,0.4-0.1,0.6-0.2c0.2-0.2,0.2-0.4,0.2-0.6l0,0v-4.3c0-0.2-0.1-0.4-0.2-0.6
						c-0.2-0.2-0.3-0.2-0.6-0.2l0,0h-4.3c-0.2,0-0.4,0.1-0.6,0.2c-0.2,0.2-0.2,0.4-0.2,0.6l0,0v4.3c0,0.2,0.1,0.4,0.2,0.6
						c0.2,0.2,0.4,0.2,0.6,0.2l0,0H26.9z"/>
				</g>
			</g>
		</g>
	</g>
	<g>
		<path class="st1" d="M17,0.1L20.8,26h-6.9l-0.4-4.7h-2.4L10.8,26h-7L7.2,0.1H17z M13.4,16.7c-0.3-2.9-0.7-6.6-1-10.9
			c-0.7,5-1.1,8.6-1.3,10.9H13.4z"/>
	</g>
</g>
</svg>
