<svg xmlns="http://www.w3.org/2000/svg" xmlns:xlink="http://www.w3.org/1999/xlink" viewBox="0 0 89.86 94.26"><defs><style>.cls-1{fill:none;}.cls-2{clip-path:url(#clip-path);}.cls-3{fill:#030304;}.cls-4{fill:#8bd24d;}.cls-5{fill:#060505;}.cls-6{fill:#fb6880;}.cls-7{fill:#f4c951;}.cls-8{fill:#6c6ce5;}.cls-9{fill:#f4c952;}.cls-10{fill:#f9d74c;}.cls-11{fill:#f7ceb3;}.cls-12{fill:#5a5c5f;}.cls-13{fill:#f8cfb3;}.cls-14{fill:#c1d1df;}.cls-15{fill:#f5cdb1;}.cls-16{fill:#ecf3fb;}.cls-17{fill:#f8ec7d;}.cls-18{fill:#f97b8b;}.cls-19{fill:#070605;}.cls-20{fill:#070505;}.cls-21{fill:#050404;}.cls-22{fill:#050202;}.cls-23{fill:#070303;}</style><clipPath id="clip-path" transform="translate(-33.63 -1.52)"><rect class="cls-1" width="150.26" height="100"/></clipPath></defs><g id="Layer_2" data-name="Layer 2"><g id="Layer_1-2" data-name="Layer 1"><g class="cls-2"><path class="cls-3" d="M42.65,95.78c-1.48-.91-1.71-2.23-1.56-3.88.32-3.54.44-7.1.65-10.65.3-5.08.57-10.16.94-15.24a6.25,6.25,0,0,1,4.84-5.39c2.84-.75,5.72-1.36,8.52-2.22a47.21,47.21,0,0,0,6-2.43,4.43,4.43,0,0,0,2.12-5c-.07-.21-.35-.39-.56-.53a15,15,0,0,1-6.84-10.6c-.42-.07-.87-.12-1.31-.21a6.47,6.47,0,0,1-5.27-4.8,6.38,6.38,0,0,1,2-6.84,1.78,1.78,0,0,0,.64-1.48c0-2.81-.21-5.64.49-8.42A16.59,16.59,0,0,1,67,5.73,27.14,27.14,0,0,1,78.44,6c3,.83,5.52,2.39,6.6,5.54a26.26,26.26,0,0,1,.63,2.81c2.79.29,3.89,2.34,4.24,4.75s.3,5.13.45,7.69a1.62,1.62,0,0,0,.38,1,6.82,6.82,0,0,1-4.17,12l-2.1,5.89h31.66a5.41,5.41,0,0,1,5.6,4.23,6.45,6.45,0,0,1,.13,1.46q0,13.16,0,26.32a5.39,5.39,0,0,1-5.78,5.72H103.63v5.64h4.75c.8,0,1.6,0,2.4,0a3.06,3.06,0,0,1,3.11,2.46,3.4,3.4,0,0,1-1.84,4c-.12.06-.23.15-.35.22Zm61-14.18h1c3.77,0,7.54,0,11.31,0,2.75,0,4.1-1.36,4.1-4.13,0-8.56-.05-17.11,0-25.67a4,4,0,0,0-4.32-4.27c-10.77.08-21.54,0-32.3,0-.56,0-1.11,0-1.66,0a3.54,3.54,0,0,0-3.58,3.82V77.73a3.59,3.59,0,0,0,3.9,3.87c3.9,0,7.79,0,11.69,0,.26,0,.52,0,.8,0v-9.2a2.75,2.75,0,0,1,3-3.08h2.86c2,0,3.12,1,3.12,3.09ZM84.24,93.9c0-.6,0-1.17,0-1.74a2.94,2.94,0,0,1,2.68-3.07A13.78,13.78,0,0,1,88.86,89h5.68V83.45H81.73a4.71,4.71,0,0,1-1.19-.1,5.42,5.42,0,0,1-4.26-5.65c0-2.82,0-5.64,0-8.46a1.32,1.32,0,0,0-.19-.84c-1.19-1.13-2.42-2.22-3.64-3.31a.91.91,0,0,0-1.43,0c-.74.77-1.48,1.54-2.24,2.3-1.36,1.35-2.43,1.34-3.79,0-2.3-2.3-4.59-4.61-6.91-6.88A1.42,1.42,0,0,0,57,60.11c-3,.73-6.05,1.51-9.07,2.32a4.46,4.46,0,0,0-3.45,4.24c-.1,1.53-.21,3.06-.29,4.59-.13,2.26-.25,4.51-.37,6.79h7.76V73.38c0-.7,0-1.41,0-2.11s.37-1,.94-.86c.34.08.62.53.86.87.1.14,0,.42,0,.63l.06,21v1ZM58.49,32.43h0c0,2-.08,4.11,0,6.16a13,13,0,0,0,17.1,11.62,1.89,1.89,0,0,0,.94-.93,5.59,5.59,0,0,1,4.91-3.59,1.32,1.32,0,0,0,.85-.5,12.68,12.68,0,0,0,2.3-7.42c0-3.84,0-7.67,0-11.5a6.34,6.34,0,0,0-1.25-3.86c-1-1.34-1.7-1.45-3.07-.48a14.65,14.65,0,0,1-8.38,2.8,14.82,14.82,0,0,1-9.34-3,1.68,1.68,0,0,0-2.63.35,6.43,6.43,0,0,0-1.46,4.15C58.47,28.32,58.49,30.37,58.49,32.43Zm30-5.94c0-1.62.1-3.16,0-4.68a17,17,0,0,0-.72-3.67,2.46,2.46,0,0,0-2.28-2c-1.17-.09-1.61-.76-1.76-2A9.89,9.89,0,0,0,83,11.57c-1.07-2.43-3.23-3.4-5.63-4a25.39,25.39,0,0,0-9.32-.17,15.09,15.09,0,0,0-10.4,5.76c-3.11,4-3.27,8.55-3,13.3l1.91-.35c0-.22,0-.37,0-.52A7.76,7.76,0,0,1,59,20.36a3.4,3.4,0,0,1,4.53-.28,13.16,13.16,0,0,0,8.38,2.76,13.33,13.33,0,0,0,7.76-2.74,4,4,0,0,1,1.93-.69c1.73-.16,2.77.93,3.62,2.24a8.15,8.15,0,0,1,1.34,4.49ZM43.73,80c-.09,1.48-.2,2.91-.28,4.35-.16,2.9-.3,5.81-.47,8.71,0,.56.17.89.76.89h7.74V80Zm58,9V88q0-5.43,0-10.86c0-1.5,0-3,0-4.51,0-1.23-.23-1.46-1.43-1.47H98.06c-1.4,0-1.58.19-1.58,1.6V89ZM64.53,56.52c2.23,2.09,4.43,4.18,6.68,6.22a1.14,1.14,0,0,0,1.09,0c1.22-1.16,2.38-2.39,3.55-3.6a1.14,1.14,0,0,0,.36-.61c0-2.11,0-4.21,0-6.42A15.11,15.11,0,0,1,66,51.76,6.24,6.24,0,0,1,64.53,56.52ZM99,90.94v0H87.68c-1.16,0-1.56.36-1.57,1.4s.44,1.55,1.56,1.56c1.54,0,3.07,0,4.6,0H110.5c.66,0,1.24-.11,1.51-.79a1.49,1.49,0,0,0-1.51-2.22ZM59.47,59.3c2.4,2.4,4.73,4.74,7.09,7a.81.81,0,0,0,.74-.09,19.84,19.84,0,0,0,1.94-2,.9.9,0,0,0,0-.87c-1.94-2-3.91-4-5.87-5.95ZM56.61,28.22a4.8,4.8,0,0,0-4.87,4.85,4.88,4.88,0,0,0,4.87,4.84Zm29.9,9.72a5,5,0,0,0,4.87-5.13,4.67,4.67,0,0,0-4.87-4.54ZM76.18,61.46c-.75.75-1.41,1.37-2,2a.67.67,0,0,0,0,.67c.6.71,1.25,1.37,2.05,2.23Z" transform="translate(-33.63 -1.52)"/><path class="cls-4" d="M93.66,1.52l.26.34a1.25,1.25,0,0,1,0,1.86,1.21,1.21,0,0,1-1.71-.1,1.19,1.19,0,0,1,.07-1.78l.3-.32Z" transform="translate(-33.63 -1.52)"/><path class="cls-5" d="M109.77,41c-3.22,0-6.44,0-9.66,0-2.5,0-3.87-1.37-3.87-3.85,0-3.93,0-7.85,0-11.78a3.52,3.52,0,0,1,3.87-3.88q9.75,0,19.5,0a3.53,3.53,0,0,1,3.88,3.88V37.22A3.47,3.47,0,0,1,119.71,41C116.39,41,113.08,41,109.77,41Zm0-1.85h9.76c1.51,0,2.06-.54,2.06-2,0-3.9,0-7.79,0-11.69,0-1.53-.56-2.1-2.12-2.1H100.19c-1.55,0-2.11.58-2.11,2.11V37c0,1.57.52,2.11,2.08,2.11Z" transform="translate(-33.63 -1.52)"/><path class="cls-6" d="M38.09,33.4c-.11,1.43-.5,2-1.28,2s-1.06-.47-1.22-1.9c-1.6-.32-2-.62-1.94-1.38.14-1.13,1-1.12,2-1.14.06-.89,0-2,1.3-1.95,1.09.05,1.15,1,1.15,1.91.92.06,2,.09,2,1.29S39,33.39,38.09,33.4Z" transform="translate(-33.63 -1.52)"/><path class="cls-7" d="M109.08,9.52a4.72,4.72,0,0,0,3.53,3.19,4.56,4.56,0,0,0-3.52,3.52,4.6,4.6,0,0,0-3.46-3.52A4.58,4.58,0,0,0,109.08,9.52Z" transform="translate(-33.63 -1.52)"/><path class="cls-8" d="M47.51,10.43l1.91,1.89L47.5,14.24,45.57,12.3Z" transform="translate(-33.63 -1.52)"/><path class="cls-9" d="M38.79,53.06a1.25,1.25,0,0,1,1.27-1.28,1.26,1.26,0,1,1-1.27,1.28Z" transform="translate(-33.63 -1.52)"/><path class="cls-8" d="M103.6,81.6V72.36c0-2-1.07-3.09-3.12-3.09H97.62a2.75,2.75,0,0,0-3,3.08v9.2c-.28,0-.54,0-.8,0-3.9,0-7.79,0-11.69,0a3.59,3.59,0,0,1-3.9-3.87V51.41a3.54,3.54,0,0,1,3.58-3.82c.55,0,1.1,0,1.66,0,10.76,0,21.53,0,32.3,0a4,4,0,0,1,4.32,4.27c-.09,8.56,0,17.11,0,25.67,0,2.77-1.35,4.13-4.1,4.13-3.77,0-7.54,0-11.31,0Z" transform="translate(-33.63 -1.52)"/><path class="cls-10" d="M84.24,93.9H53.49v-1l-.06-21c0-.21.07-.49,0-.63-.24-.34-.52-.79-.86-.87-.57-.15-.91.3-.94.86s0,1.41,0,2.11v4.67H43.81c.12-2.28.24-4.53.37-6.79.08-1.53.19-3.06.29-4.59a4.46,4.46,0,0,1,3.45-4.24c3-.81,6-1.59,9.07-2.32a1.42,1.42,0,0,1,1.08.42c2.32,2.27,4.61,4.58,6.91,6.88,1.36,1.36,2.43,1.37,3.79,0,.76-.76,1.5-1.53,2.24-2.3a.91.91,0,0,1,1.43,0c1.22,1.09,2.45,2.18,3.64,3.31a1.32,1.32,0,0,1,.19.84c0,2.82,0,5.64,0,8.46a5.42,5.42,0,0,0,4.26,5.65,4.71,4.71,0,0,0,1.19.1H94.54V89H88.86a13.78,13.78,0,0,0-1.93.07,2.94,2.94,0,0,0-2.68,3.07C84.23,92.73,84.24,93.3,84.24,93.9Z" transform="translate(-33.63 -1.52)"/><path class="cls-11" d="M58.49,32.43c0-2.06,0-4.11,0-6.17A6.43,6.43,0,0,1,60,22.11a1.68,1.68,0,0,1,2.63-.35,14.82,14.82,0,0,0,9.34,3,14.65,14.65,0,0,0,8.38-2.8c1.37-1,2.08-.86,3.07.48a6.34,6.34,0,0,1,1.25,3.86c0,3.83,0,7.66,0,11.5a12.68,12.68,0,0,1-2.3,7.42,1.32,1.32,0,0,1-.85.5,5.59,5.59,0,0,0-4.91,3.59,1.89,1.89,0,0,1-.94.93,13,13,0,0,1-17.1-11.62c-.09-2.05,0-4.11,0-6.16Zm13.3,11.66A5.9,5.9,0,0,0,76,42.48c.46-.43.8-.95.29-1.51s-1-.31-1.57.17a4.28,4.28,0,0,1-5.83,0c-.48-.44-1-.72-1.5-.18s-.22,1.12.27,1.57A5.88,5.88,0,0,0,71.79,44.09Zm6.26-12.28a1.91,1.91,0,0,0-1.86,1.88,2,2,0,0,0,1.88,1.88A1.91,1.91,0,0,0,80,33.63,1.89,1.89,0,0,0,78.05,31.81ZM63.6,33.72a1.86,1.86,0,0,0,1.89,1.85,1.92,1.92,0,0,0,1.84-1.92,1.88,1.88,0,0,0-1.91-1.84A1.85,1.85,0,0,0,63.6,33.72Z" transform="translate(-33.63 -1.52)"/><path class="cls-12" d="M88.48,26.49l-2-.35a8.15,8.15,0,0,0-1.34-4.49c-.85-1.31-1.89-2.4-3.62-2.24a4,4,0,0,0-1.93.69,13.33,13.33,0,0,1-7.76,2.74,13.16,13.16,0,0,1-8.38-2.76,3.4,3.4,0,0,0-4.53.28,7.76,7.76,0,0,0-2.32,5.25c0,.15,0,.3,0,.52l-1.91.35c-.28-4.75-.12-9.34,3-13.3a15.09,15.09,0,0,1,10.4-5.76,25.39,25.39,0,0,1,9.32.17c2.4.58,4.56,1.55,5.63,4a9.89,9.89,0,0,1,.65,2.65c.15,1.2.59,1.87,1.76,2a2.46,2.46,0,0,1,2.28,2,17,17,0,0,1,.72,3.67C88.58,23.33,88.48,24.87,88.48,26.49Z" transform="translate(-33.63 -1.52)"/><path class="cls-13" d="M43.73,80h7.75v14H43.74c-.59,0-.79-.33-.76-.89.17-2.9.31-5.81.47-8.71C43.53,82.9,43.64,81.47,43.73,80Z" transform="translate(-33.63 -1.52)"/><path class="cls-14" d="M101.74,89H96.48V72.71c0-1.41.18-1.6,1.58-1.6h2.21c1.2,0,1.43.24,1.43,1.47,0,1.51,0,3,0,4.51q0,5.43,0,10.86Z" transform="translate(-33.63 -1.52)"/><path class="cls-15" d="M64.53,56.52A6.24,6.24,0,0,0,66,51.76a15.11,15.11,0,0,0,10.21.32c0,2.21,0,4.31,0,6.42a1.14,1.14,0,0,1-.36.61c-1.17,1.21-2.33,2.44-3.55,3.6a1.14,1.14,0,0,1-1.09,0C69,60.7,66.76,58.61,64.53,56.52Z" transform="translate(-33.63 -1.52)"/><path class="cls-16" d="M99,90.94h11.5A1.49,1.49,0,0,1,112,93.16c-.27.68-.85.79-1.51.79H92.27c-1.53,0-3.06,0-4.6,0-1.12,0-1.57-.48-1.56-1.56s.41-1.4,1.57-1.4H99Z" transform="translate(-33.63 -1.52)"/><path class="cls-15" d="M56.61,28.22v9.69a4.88,4.88,0,0,1-4.87-4.84A4.8,4.8,0,0,1,56.61,28.22Z" transform="translate(-33.63 -1.52)"/><path class="cls-15" d="M86.51,37.94V28.27a4.67,4.67,0,0,1,4.87,4.54A5,5,0,0,1,86.51,37.94Z" transform="translate(-33.63 -1.52)"/><path class="cls-17" d="M59.47,59.3l3.92-1.81c2,2,3.93,3.94,5.87,5.95a.9.9,0,0,1,0,.87,19.84,19.84,0,0,1-1.94,2,.81.81,0,0,1-.74.09C64.2,64,61.87,61.7,59.47,59.3Z" transform="translate(-33.63 -1.52)"/><path class="cls-17" d="M76.18,61.46v4.95c-.8-.86-1.45-1.52-2.05-2.23a.67.67,0,0,1,0-.67C74.77,62.83,75.43,62.21,76.18,61.46Z" transform="translate(-33.63 -1.52)"/><path class="cls-18" d="M109.82,39.13h-9.66c-1.56,0-2.08-.54-2.08-2.11V25.42c0-1.53.56-2.11,2.11-2.11h19.33c1.56,0,2.12.57,2.12,2.1,0,3.9,0,7.79,0,11.69,0,1.49-.55,2-2.06,2Zm-7.52-7.89c1.19-1.18,2.27-2.25,3.37-3.32.49-.47.82-1,.23-1.56s-1-.24-1.5.22c-1.25,1.27-2.51,2.51-3.76,3.77-.7.72-.7,1.07,0,1.78,1.25,1.26,2.52,2.5,3.76,3.77.46.46,1,.73,1.51.22s.25-1.09-.23-1.56C104.57,33.49,103.49,32.41,102.3,31.24Zm15.15,0c-1.22,1.2-2.31,2.28-3.4,3.34-.46.45-.81.94-.28,1.5s1.09.3,1.57-.19c1.23-1.24,2.47-2.46,3.7-3.7.77-.77.76-1.11,0-1.91-1.21-1.22-2.43-2.42-3.64-3.64-.47-.48-1-.84-1.57-.26s-.22,1.1.27,1.56C115.17,29,116.26,30.07,117.45,31.23Zm-5.13-4.89c-.22-.22-.48-.69-.77-.71a1.28,1.28,0,0,0-1.06.57,23.64,23.64,0,0,0-.87,2.7q-1,3.32-2.05,6.65c-.19.61-.12,1.13.56,1.32s1-.16,1.2-.8c0-.11.09-.23.13-.34q1.29-4.24,2.6-8.5C112.13,27,112.2,26.77,112.32,26.34Z" transform="translate(-33.63 -1.52)"/><path class="cls-19" d="M71.79,44.09a5.88,5.88,0,0,1-4.18-1.59c-.49-.45-.84-1-.27-1.57s1-.26,1.5.18a4.28,4.28,0,0,0,5.83,0c.52-.48,1-.76,1.57-.17s.17,1.08-.29,1.51A5.9,5.9,0,0,1,71.79,44.09Z" transform="translate(-33.63 -1.52)"/><path class="cls-20" d="M78.05,31.81A1.89,1.89,0,0,1,80,33.63a1.91,1.91,0,0,1-1.89,1.94,2,2,0,0,1-1.88-1.88A1.91,1.91,0,0,1,78.05,31.81Z" transform="translate(-33.63 -1.52)"/><path class="cls-21" d="M63.6,33.72a1.85,1.85,0,0,1,1.82-1.91,1.88,1.88,0,0,1,1.91,1.84,1.92,1.92,0,0,1-1.84,1.92A1.86,1.86,0,0,1,63.6,33.72Z" transform="translate(-33.63 -1.52)"/><path class="cls-22" d="M102.3,31.24c1.19,1.17,2.27,2.25,3.37,3.32.48.47.83,1,.23,1.56s-1.05.24-1.51-.22c-1.24-1.27-2.51-2.51-3.76-3.77-.69-.71-.69-1.06,0-1.78,1.25-1.26,2.51-2.5,3.76-3.77.46-.46,1-.75,1.5-.22s.26,1.09-.23,1.56C104.57,29,103.49,30.06,102.3,31.24Z" transform="translate(-33.63 -1.52)"/><path class="cls-22" d="M117.45,31.23c-1.19-1.16-2.28-2.24-3.38-3.3-.49-.46-.85-1-.27-1.56s1.1-.22,1.57.26c1.21,1.22,2.43,2.42,3.64,3.64.79.8.8,1.14,0,1.91-1.23,1.24-2.47,2.46-3.7,3.7-.48.49-1,.78-1.57.19s-.18-1,.28-1.5C115.14,33.51,116.23,32.43,117.45,31.23Z" transform="translate(-33.63 -1.52)"/><path class="cls-23" d="M112.32,26.34c-.12.43-.19.66-.26.89q-1.31,4.26-2.6,8.5c0,.11-.1.23-.13.34-.16.64-.55,1-1.2.8s-.75-.71-.56-1.32q1-3.33,2.05-6.65a23.64,23.64,0,0,1,.87-2.7,1.28,1.28,0,0,1,1.06-.57C111.84,25.65,112.1,26.12,112.32,26.34Z" transform="translate(-33.63 -1.52)"/></g></g></g></svg>