<?xml version="1.0" encoding="utf-8"?>
<!-- Generator: Adobe Illustrator 25.2.0, SVG Export Plug-In . SVG Version: 6.00 Build 0)  -->
<svg version="1.1" id="Layer_1" xmlns="http://www.w3.org/2000/svg" xmlns:xlink="http://www.w3.org/1999/xlink" x="0px" y="0px"
	 viewBox="0 0 107 33" height="30" style="enable-background:new 0 0 107 33;" xml:space="preserve">
<style type="text/css">
	.st0{fill:#FF4C60;}
	.st1{fill:#FFFFFF;}
	.st2{font-family:'Impact';}
	.st3{font-size:36.323px;}
</style>
<desc>Created with Sketch.</desc>
<g>
	<g id="Symbols_1_">
		<g id="header-1-light" transform="translate(-2.000000, -61.000000)">
			<g id="Bolby._1_">
				<g transform="translate(2.448000, 61.440000)">
					<path id="_x2E__1_" class="st0" d="M92.7,29.9c0.3,0,0.5-0.1,0.6-0.3c0.2-0.2,0.3-0.4,0.3-0.6l0,0v-4.8c0-0.3-0.1-0.5-0.3-0.7
						s-0.4-0.3-0.6-0.3l0,0h-4.8c-0.3,0-0.5,0.1-0.7,0.3S87,24,87,24.3l0,0V29c0,0.3,0.1,0.5,0.3,0.6c0.2,0.2,0.4,0.3,0.7,0.3l0,0
						H92.7z"/>
				</g>
			</g>
		</g>
	</g>
	<text transform="matrix(1 0 0 1 13.1804 30.4515)" class="st1 st2 st3">Ansh</text>
</g>
</svg>
